<?xml version="1.0" encoding="UTF-8" standalone="no"?>
<svg
   xmlns:dc="http://purl.org/dc/elements/1.1/"
   xmlns:cc="http://creativecommons.org/ns#"
   xmlns:rdf="http://www.w3.org/1999/02/22-rdf-syntax-ns#"
   xmlns:svg="http://www.w3.org/2000/svg"
   xmlns="http://www.w3.org/2000/svg"
   xmlns:sodipodi="http://sodipodi.sourceforge.net/DTD/sodipodi-0.dtd"
   xmlns:inkscape="http://www.inkscape.org/namespaces/inkscape"
   inkscape:version="1.0 (4035a4fb49, 2020-05-01)"
   sodipodi:docname="ava.svg"
   version="1.1"
   viewBox="0 0 698 698"
   height="698"
   width="698"
   data-name="Layer 1"
   id="457bf273-24a3-4fd8-a857-e9b918267d6a">
  <metadata
     id="metadata44">
    <rdf:RDF>
      <cc:Work
         rdf:about="">
        <dc:format>image/svg+xml</dc:format>
        <dc:type
           rdf:resource="http://purl.org/dc/dcmitype/StillImage" />
        <dc:title>profile pic</dc:title>
      </cc:Work>
    </rdf:RDF>
  </metadata>
  <sodipodi:namedview
     showguides="false"
     inkscape:current-layer="457bf273-24a3-4fd8-a857-e9b918267d6a"
     inkscape:window-maximized="1"
     inkscape:window-y="-9"
     inkscape:window-x="-9"
     inkscape:cy="117.53532"
     inkscape:cx="235.65255"
     inkscape:zoom="0.74458952"
     showgrid="false"
     id="namedview42"
     inkscape:window-height="1051"
     inkscape:window-width="1920"
     inkscape:pageshadow="2"
     inkscape:pageopacity="0"
     guidetolerance="10"
     gridtolerance="10"
     objecttolerance="10"
     borderopacity="1"
     bordercolor="#666666"
     pagecolor="#ffffff"
     inkscape:document-rotation="0" />
  <defs
     id="defs9">
    <linearGradient
       gradientUnits="userSpaceOnUse"
       x2="349"
       y1="698"
       x1="349"
       id="b247946c-c62f-4d08-994a-4c3d64e1e98f">
      <stop
         id="stop2"
         stop-opacity="0.25"
         stop-color="gray"
         offset="0" />
      <stop
         id="stop4"
         stop-opacity="0.12"
         stop-color="gray"
         offset="0.54" />
      <stop
         id="stop6"
         stop-opacity="0.1"
         stop-color="gray"
         offset="1" />
    </linearGradient>
  </defs>
  <title
     id="title11">profile pic</title>
  <g
     id="g15"
     opacity="0.5">
    <circle
       id="circle13"
       fill="url(#b247946c-c62f-4d08-994a-4c3d64e1e98f)"
       r="349"
       cy="349"
       cx="349" />
  </g>
  <circle
     id="circle17"
     fill="#f5f5f5"
     r="341.64001"
     cy="346.29517"
     cx="349.20517" />
  <path
     id="path19"
     fill="#6c63ff"
     transform="translate(-251 -101)"
     d="M601,790.76a340,340,0,0,0,187.79-56.2c-12.59-68.8-60.5-72.72-60.5-72.72H464.09s-45.21,3.71-59.33,67A340.07,340.07,0,0,0,601,790.76Z"
     style="fill:#ff6e00;fill-opacity:1" />
  <ellipse
     ry="164.89999"
     rx="158.04086"
     style="stroke-width:1"
     id="circle21"
     fill="#333333"
     cy="340.51968"
     cx="345.86926" />
  <path
     id="path23"
     opacity="0.1"
     d="M293.15,476.92H398.81a0,0,0,0,1,0,0v84.53A52.83,52.83,0,0,1,346,614.28h0a52.83,52.83,0,0,1-52.83-52.83V476.92a0,0,0,0,1,0,0Z" />
  <path
     id="path25"
     fill="#fdb797"
     d="M296.5,473h99a3.35,3.35,0,0,1,3.35,3.35v81.18A52.83,52.83,0,0,1,346,610.37h0a52.83,52.83,0,0,1-52.83-52.83V476.35A3.35,3.35,0,0,1,296.5,473Z" />
  <path
     id="path27"
     opacity="0.1"
     transform="translate(-251 -101)"
     d="M544.34,617.82a152.07,152.07,0,0,0,105.66.29v-13H544.34Z" />
  <circle
     id="circle29"
     fill="#fdb797"
     r="151.45"
     cy="372.44"
     cx="346.37" />
  <path
     id="path31"
     opacity="0.1"
     d="m 256.99836,287.87123 c 0,0 83.56602,117.79976 249.4078,14.96219 L 454.59409,244.582 376.9953,230.0323 Z" />
  <path
     id="path33"
     fill="#333333"
     d="m 258.16983,274.46668 c 0,0 77.09361,122.1337 248.23633,28.36674 L 457.80992,241.87339 381.1084,223.16131 Z" />
  <ellipse
     id="ellipse37"
     fill="#fdb797"
     ry="26.42"
     rx="14.09"
     cy="372.3"
     cx="194.86" />
  <ellipse
     id="ellipse39"
     fill="#fdb797"
     ry="26.42"
     rx="14.09"
     cy="372.3"
     cx="497.8" />
  <path
     id="path876"
     style="fill:#ffffff;fill-opacity:1;stroke:#e6e6e6;stroke-width:15;stroke-linecap:square;stroke-linejoin:round;stroke-miterlimit:4;stroke-dasharray:none;stroke-opacity:1"
     d="M 305.89546,99.797738 V 125.06583 C 192.46499,148.19833 177.67754,278.39591 177.67754,278.39591 l -14.69225,0.44407 v 42.2067 h 363.28655 v -39.54047 h -12.91043 c 0,0 -20.50486,-131.5295 -133.56155,-156.03286 V 99.797738 Z" />
  <path
     style="fill:#808080;fill-opacity:1;stroke:#e6e6e6;stroke-width:15;stroke-linecap:butt;stroke-linejoin:round;stroke-miterlimit:4;stroke-dasharray:none;stroke-opacity:1;paint-order:markers fill stroke"
     d="M 305.89545,125.06585 V 282.37669"
     id="path896" />
  <path
     style="fill:#808080;fill-opacity:1;stroke:#e6e6e6;stroke-width:15;stroke-linecap:butt;stroke-linejoin:round;stroke-miterlimit:4;stroke-dasharray:none;stroke-opacity:1"
     d="M 379.79989,125.47331 V 279.86342"
     id="path900" />
  <circle
     r="7.8902535"
     cy="374.87097"
     cx="265.75046"
     id="path1144"
     style="fill:#ffffff;fill-opacity:0;stroke:#e6e6e6;stroke-width:5;stroke-linecap:round;stroke-linejoin:round;stroke-miterlimit:4;stroke-dasharray:none;stroke-dashoffset:0;stroke-opacity:0.421053;paint-order:markers fill stroke;stop-color:#000000" />
</svg>
