<?xml version="1.0" encoding="UTF-8" standalone="no"?>
<svg
   xmlns:dc="http://purl.org/dc/elements/1.1/"
   xmlns:cc="http://creativecommons.org/ns#"
   xmlns:rdf="http://www.w3.org/1999/02/22-rdf-syntax-ns#"
   xmlns:svg="http://www.w3.org/2000/svg"
   xmlns="http://www.w3.org/2000/svg"
   xmlns:sodipodi="http://sodipodi.sourceforge.net/DTD/sodipodi-0.dtd"
   xmlns:inkscape="http://www.inkscape.org/namespaces/inkscape"
   sodipodi:docname="mendozarq.svg"
   inkscape:version="1.0 (4035a4fb49, 2020-05-01)"
   id="svg8"
   version="1.1"
   viewBox="0 0 65.069996 16.22"
   height="16.219999mm"
   width="65.07mm">
  <defs
     id="defs2">
    <rect
       x="100.46661"
       y="92.608887"
       width="102.89877"
       height="45.462543"
       id="rect915" />
    <rect
       x="6.3610144"
       y="77.641792"
       width="136.01346"
       height="21.328108"
       id="rect897" />
    <rect
       x="16.463802"
       y="54.255714"
       width="124.60105"
       height="21.515196"
       id="rect876" />
    <rect
       x="23.386084"
       y="38.91444"
       width="141.43903"
       height="22.824818"
       id="rect855" />
    <rect
       id="rect948"
       height="26.326042"
       width="72.495834"
       y="54.768749"
       x="26.590626" />
    <rect
       id="rect835"
       height="20.977678"
       width="53.9561"
       y="117.26711"
       x="65.86235" />
    <rect
       x="65.86235"
       y="117.26711"
       width="53.9561"
       height="20.977678"
       id="rect835-6" />
    <rect
       x="65.86235"
       y="117.26711"
       width="53.9561"
       height="20.977678"
       id="rect848" />
    <rect
       x="65.86235"
       y="117.26711"
       width="53.9561"
       height="20.977678"
       id="rect835-7" />
    <rect
       x="65.86235"
       y="117.26711"
       width="53.9561"
       height="20.977678"
       id="rect848-8" />
  </defs>
  <sodipodi:namedview
     inkscape:window-maximized="1"
     inkscape:window-y="-9"
     inkscape:window-x="-9"
     inkscape:window-height="1051"
     inkscape:window-width="1920"
     inkscape:snap-global="false"
     showgrid="false"
     inkscape:document-rotation="0"
     inkscape:current-layer="layer1"
     inkscape:document-units="mm"
     inkscape:cy="-8.2327689"
     inkscape:cx="184.53259"
     inkscape:zoom="2"
     inkscape:pageshadow="2"
     inkscape:pageopacity="0.0"
     borderopacity="1.0"
     bordercolor="#666666"
     pagecolor="#ffffff"
     id="base"
     inkscape:snap-bbox="false"
     units="mm" />
  <metadata
     id="metadata5">
    <rdf:RDF>
      <cc:Work
         rdf:about="">
        <dc:format>image/svg+xml</dc:format>
        <dc:type
           rdf:resource="http://purl.org/dc/dcmitype/StillImage" />
        <dc:title></dc:title>
      </cc:Work>
    </rdf:RDF>
  </metadata>
  <g
     id="layer1"
     inkscape:groupmode="layer"
     inkscape:label="Layer 1">
    <text
       xml:space="preserve"
       id="text895"
       style="font-size:14.1111px;line-height:1.25;font-family:'Alien League Bold';-inkscape-font-specification:'Alien League Bold, Normal';white-space:pre;shape-inside:url(#rect897);" />
    <text
       xml:space="preserve"
       style="font-size:14.1111px;line-height:1.25;font-family:'Alien League Bold';-inkscape-font-specification:'Alien League Bold, Normal';stroke-width:0.264583"
       x="82.319016"
       y="86.809135"
       id="text903"><tspan
         sodipodi:role="line"
         id="tspan901"
         x="82.319016"
         y="86.809135"
         style="stroke-width:0.264583" /></text>
    <text
       xml:space="preserve"
       id="text913"
       style="font-size:14.1111px;line-height:1.25;font-family:'Alien League Bold';-inkscape-font-specification:'Alien League Bold, Normal';white-space:pre;shape-inside:url(#rect915);" />
    <g
       id="g1035">
      <path
         id="path1021-9-0"
         style="font-style:normal;font-variant:normal;font-weight:normal;font-stretch:normal;font-size:14.1111px;line-height:1.25;font-family:Tolerant;-inkscape-font-specification:Tolerant;white-space:pre;fill:#ff3e00;fill-opacity:1;stroke-width:13.2292;stroke-miterlimit:4;stroke-dasharray:none;paint-order:fill markers stroke"
         d="M 5.7484937,16.210616 V 10.131639 L 9.5808265,6.0789809 V 16.210616 Z M 0,16.210616 V 7.0921469 L 6.7065793,0 H 15.329309 V 16.210616 H 11.496987 V 4.052648 H 8.6227405 L 3.8323232,9.1184729 v 7.0921431 z"
         sodipodi:nodetypes="cccccccccccccccc" />
      <path
         id="path983"
         style="font-style:normal;font-variant:normal;font-weight:normal;font-stretch:normal;font-size:14.1111px;line-height:1.25;font-family:'Alien League Bold';-inkscape-font-specification:'Alien League Bold, ';font-variation-settings:normal;vector-effect:none;fill:#4a4a55;fill-opacity:1;stroke-width:0.999995;stroke-linecap:butt;stroke-linejoin:miter;stroke-miterlimit:4;stroke-dasharray:none;stroke-dashoffset:0;stroke-opacity:1;stop-color:#000000"
         d="M 23.72943,13.411082 V 5.3818653 L 21.471654,13.411082 H 20.850766 L 18.578878,5.3677542 V 13.411082 H 17.816879 V 2.799534 h 0.747888 l 2.610554,8.932327 2.539998,-8.932327 h 0.747888 v 10.611548 z" />
      <path
         id="path985"
         style="font-style:normal;font-variant:normal;font-weight:normal;font-stretch:normal;font-size:14.1111px;line-height:1.25;font-family:'Alien League Bold';-inkscape-font-specification:'Alien League Bold, ';font-variation-settings:normal;vector-effect:none;fill:#4a4a55;fill-opacity:1;stroke-width:0.999995;stroke-linecap:butt;stroke-linejoin:miter;stroke-miterlimit:4;stroke-dasharray:none;stroke-dashoffset:0;stroke-opacity:1;stop-color:#000000"
         d="M 26.279196,13.411082 V 2.7995341 h 3.118553 v 0.7761105 h -2.412998 v 3.9793303 h 2.144887 v 0.7902216 h -2.144887 v 4.2897745 h 2.412998 v 0.776111 z" />
      <path
         id="path987"
         style="font-style:normal;font-variant:normal;font-weight:normal;font-stretch:normal;font-size:14.1111px;line-height:1.25;font-family:'Alien League Bold';-inkscape-font-specification:'Alien League Bold, ';font-variation-settings:normal;vector-effect:none;fill:#4a4a55;fill-opacity:1;stroke-width:0.999995;stroke-linecap:butt;stroke-linejoin:miter;stroke-miterlimit:4;stroke-dasharray:none;stroke-dashoffset:0;stroke-opacity:1;stop-color:#000000"
         d="m 31.919293,6.016865 v 7.394217 H 31.213738 V 2.7995341 h 0.733777 l 1.66511,7.4365499 V 2.7995341 H 34.31818 V 13.411082 h -0.719666 z" />
      <path
         id="path989"
         style="font-style:normal;font-variant:normal;font-weight:normal;font-stretch:normal;font-size:14.1111px;line-height:1.25;font-family:'Alien League Bold';-inkscape-font-specification:'Alien League Bold, ';font-variation-settings:normal;vector-effect:none;fill:#4a4a55;fill-opacity:1;stroke-width:0.999995;stroke-linecap:butt;stroke-linejoin:miter;stroke-miterlimit:4;stroke-dasharray:none;stroke-dashoffset:0;stroke-opacity:1;stop-color:#000000"
         d="m 36.839727,3.5756444 v 9.0593266 h 0.380999 q 0.296333,-0.04233 0.508,-0.324555 0.225777,-0.296333 0.352777,-0.691444 0.141111,-0.395111 0.211667,-0.804333 0.08467,-0.409222 0.112889,-0.691444 v 0.01411 q 0,-0.05644 0,-0.09878 0.01411,-0.05645 0.01411,-0.127 0.02822,-0.381 0.07055,-0.9454443 0.04233,-0.5785551 0.04233,-1.2276657 0,-0.3809997 -0.02822,-0.7761105 -0.0141,-0.4092179 -0.05644,-0.7619954 Q 38.406059,5.8334205 38.349614,5.5511984 38.307281,5.2548653 38.264948,5.0996432 38.109726,4.1683106 37.700504,3.8155331 37.587615,3.7026443 37.474726,3.6461999 37.375948,3.5756444 37.234837,3.5756444 Z M 36.134172,13.411082 V 2.7995339 h 1.312332 q 0.366888,0 0.691444,0.3245553 0.324555,0.3104442 0.564444,0.705555 0.282222,0.705555 0.423333,1.7921097 0.141111,1.0865548 0.141111,2.4553316 v 0.2681109 q 0,0.846666 -0.08467,1.5381107 -0.08467,0.6773319 -0.211666,1.1994429 -0.127,0.522111 -0.268111,0.888999 -0.141111,0.366889 -0.254,0.592667 -0.197555,0.380999 -0.493889,0.620888 -0.282222,0.225778 -0.592666,0.225778 z" />
      <path
         id="path991"
         style="font-style:normal;font-variant:normal;font-weight:normal;font-stretch:normal;font-size:14.1111px;line-height:1.25;font-family:'Alien League Bold';-inkscape-font-specification:'Alien League Bold, ';font-variation-settings:normal;vector-effect:none;fill:#4a4a55;fill-opacity:1;stroke-width:0.999995;stroke-linecap:butt;stroke-linejoin:miter;stroke-miterlimit:4;stroke-dasharray:none;stroke-dashoffset:0;stroke-opacity:1;stop-color:#000000"
         d="m 41.788379,11.872972 q 0,0.366888 0.112889,0.564444 0.127,0.197555 0.493889,0.197555 h 0.64911 q 0.268111,0 0.352778,-0.183444 0.08467,-0.197556 0.08467,-0.578555 V 4.337644 q 0,-0.3809997 -0.08467,-0.564444 -0.08467,-0.1975554 -0.352778,-0.1975554 h -0.874888 q -0.155222,0 -0.268111,0.2116665 -0.112889,0.1975554 -0.112889,0.5362218 z m 2.398887,0.366888 q 0,0.423333 -0.239888,0.790222 -0.225778,0.352777 -0.677333,0.381 h -1.255888 q -0.254,-0.01411 -0.437444,-0.127 -0.183444,-0.127 -0.296333,-0.296333 -0.09878,-0.169334 -0.155222,-0.381 -0.04233,-0.211667 -0.04233,-0.437444 V 4.0413109 q 0,-0.4797774 0.211667,-0.8607771 0.225777,-0.3809997 0.761999,-0.3809997 h 1.142999 q 0.451556,0.042333 0.719667,0.3951108 0.26811,0.3386664 0.26811,0.7478883 z" />
      <path
         id="path993"
         style="font-style:normal;font-variant:normal;font-weight:normal;font-stretch:normal;font-size:14.1111px;line-height:1.25;font-family:'Alien League Bold';-inkscape-font-specification:'Alien League Bold, ';font-variation-settings:normal;vector-effect:none;fill:#4a4a55;fill-opacity:1;stroke-width:0.999995;stroke-linecap:butt;stroke-linejoin:miter;stroke-miterlimit:4;stroke-dasharray:none;stroke-dashoffset:0;stroke-opacity:1;stop-color:#000000"
         d="M 49.121813,3.4768671 V 2.7995343 H 46.00326 v 0.7761105 h 2.300109 l -2.271887,9.1581042 v 0.677333 h 3.090331 v -0.776111 h -2.31422 z" />
      <path
         id="path995"
         style="font-style:normal;font-variant:normal;font-weight:normal;font-stretch:normal;font-size:14.1111px;line-height:1.25;font-family:'Alien League Bold';-inkscape-font-specification:'Alien League Bold, ';font-variation-settings:normal;vector-effect:none;fill:#4a4a55;fill-opacity:1;stroke-width:0.999995;stroke-linecap:butt;stroke-linejoin:miter;stroke-miterlimit:4;stroke-dasharray:none;stroke-dashoffset:0;stroke-opacity:1;stop-color:#000000"
         d="m 52.306579,9.0648628 h 1.185333 L 52.899245,4.9585326 Z M 54.141022,13.411082 53.6048,9.8974178 H 52.179579 L 51.713913,13.411082 H 50.937802 L 52.490024,2.7995343 h 0.818443 l 1.608666,10.6115477 z" />
      <path
         id="path997"
         style="font-style:normal;font-variant:normal;font-weight:normal;font-stretch:normal;font-size:14.1111px;line-height:1.25;font-family:'Alien League Bold';-inkscape-font-specification:'Alien League Bold, ';font-variation-settings:normal;vector-effect:none;fill:#4a4a55;fill-opacity:1;stroke-width:0.999995;stroke-linecap:butt;stroke-linejoin:miter;stroke-miterlimit:4;stroke-dasharray:none;stroke-dashoffset:0;stroke-opacity:1;stop-color:#000000"
         d="m 57.452791,3.5756443 v 4.4873299 h 0.77611 q 0.254,0 0.409222,-0.1693332 0.169333,-0.1834443 0.254,-0.4656663 0.09878,-0.282222 0.141111,-0.6208885 0.04233,-0.3527775 0.07056,-0.6773328 0.01411,-0.098778 0.01411,-0.1693331 0,-0.070556 0.01411,-0.1552221 Q 59.10379,5.4241984 59.047345,5.0290876 59.005012,4.6339768 58.892123,4.3094215 58.793345,3.9848662 58.59579,3.7873108 58.412346,3.5756443 58.101901,3.5756443 Z M 56.733125,13.411081 V 2.7995338 h 1.693332 q 0.239888,0 0.479777,0.2257776 0.254,0.2116665 0.451555,0.6067773 0.211667,0.3809997 0.338667,0.9313326 0.127,0.5503329 0.127,1.2135547 0,1.2135546 -0.282222,1.9332207 -0.268111,0.705555 -0.635,0.9736659 0.225778,0.423333 0.338667,0.8184437 0.112888,0.381 0.239888,0.9172207 v -0.01411 l 0.663222,3.005665 h -0.804333 l -0.451555,-2.229554 q -0.127,-0.663222 -0.254,-1.072444 Q 58.525234,9.6857503 58.412346,9.4317513 58.313568,9.1777511 58.200679,9.0507512 58.101901,8.9237513 58.003124,8.8390847 h -0.550333 v 4.5719963 z" />
      <path
         id="path999"
         style="font-style:normal;font-variant:normal;font-weight:normal;font-stretch:normal;font-size:14.1111px;line-height:1.25;font-family:'Alien League Bold';-inkscape-font-specification:'Alien League Bold, ';font-variation-settings:normal;vector-effect:none;fill:#4a4a55;fill-opacity:1;stroke-width:0.999998;stroke-linecap:butt;stroke-linejoin:miter;stroke-miterlimit:4;stroke-dasharray:none;stroke-dashoffset:0;stroke-opacity:1;stop-color:#000000"
         d="m 62.669558,10.947687 q 0,0.303187 0.09878,0.480046 0.09878,0.164227 0.395111,0.189492 V 7.4357701 h 0.705555 v 4.1814549 h 0.05644 q 0.268111,0 0.352778,-0.164226 0.08467,-0.164227 0.08467,-0.505312 V 4.1765087 q 0,-0.3410855 -0.08467,-0.5053119 -0.08467,-0.1768591 -0.352778,-0.1768591 h -0.874888 q -0.155222,0 -0.268111,0.1894919 -0.112888,0.1768592 -0.112888,0.4800463 z m 1.199443,1.376975 v 1.08642 h -0.705555 v -1.08642 h -0.268111 q -0.522111,-0.0379 -0.733777,-0.378984 -0.197555,-0.341085 -0.197555,-0.745335 V 3.91122 q 0,-0.2147576 0.04233,-0.4168823 0.05644,-0.2021247 0.169333,-0.3537183 0.127,-0.1515935 0.310444,-0.2400231 0.183448,-0.1010624 0.451558,-0.1010624 h 1.143 q 0.451555,0.037898 0.719666,0.3537183 0.268111,0.3031871 0.268111,0.6695382 V 11.27614 q 0,0.378983 -0.239889,0.707437 -0.225778,0.315819 -0.677333,0.341085 z" />
    </g>
  </g>
</svg>
