<?xml version="1.0" encoding="UTF-8" standalone="no"?>
<svg
   xmlns:dc="http://purl.org/dc/elements/1.1/"
   xmlns:cc="http://creativecommons.org/ns#"
   xmlns:rdf="http://www.w3.org/1999/02/22-rdf-syntax-ns#"
   xmlns:svg="http://www.w3.org/2000/svg"
   xmlns="http://www.w3.org/2000/svg"
   xmlns:sodipodi="http://sodipodi.sourceforge.net/DTD/sodipodi-0.dtd"
   xmlns:inkscape="http://www.inkscape.org/namespaces/inkscape"
   inkscape:version="1.0 (4035a4fb49, 2020-05-01)"
   sodipodi:docname="no_data.svg"
   version="1.1"
   viewBox="0 0 647.63626 635"
   height="635"
   width="647.63623"
   data-name="Layer 1"
   id="b21613c9-2bf0-4d37-bef0-3b193d34fc5d">
  <metadata
     id="metadata27">
    <rdf:RDF>
      <cc:Work
         rdf:about="">
        <dc:format>image/svg+xml</dc:format>
        <dc:type
           rdf:resource="http://purl.org/dc/dcmitype/StillImage" />
        <dc:title></dc:title>
      </cc:Work>
    </rdf:RDF>
  </metadata>
  <defs
     id="defs25" />
  <sodipodi:namedview
     inkscape:current-layer="b21613c9-2bf0-4d37-bef0-3b193d34fc5d"
     inkscape:window-maximized="1"
     inkscape:window-y="-9"
     inkscape:window-x="-9"
     inkscape:cy="524.75016"
     inkscape:cx="296.47466"
     inkscape:zoom="1.4142136"
     showgrid="false"
     id="namedview23"
     inkscape:window-height="1051"
     inkscape:window-width="1920"
     inkscape:pageshadow="2"
     inkscape:pageopacity="0"
     guidetolerance="10"
     gridtolerance="10"
     objecttolerance="10"
     borderopacity="1"
     bordercolor="#666666"
     pagecolor="#ffffff" />
  <path
     id="path2"
     fill="#f2f2f2"
     transform="translate(-276.18187,-133.91309)"
     d="M 687.3279,276.08691 H 512.81813 a 15.01828,15.01828 0 0 0 -15,15 v 387.85 l -2,0.61005 -42.81006,13.11 a 8.00676,8.00676 0 0 1 -9.98974,-5.31 L 315.678,271.39691 a 8.00313,8.00313 0 0 1 5.31006,-9.99 l 65.97022,-20.2 191.25,-58.54 65.96972,-20.2 a 7.98927,7.98927 0 0 1 9.99024,5.3 l 32.5498,106.32 z" />
  <path
     id="path4"
     fill="#3f3d56"
     transform="translate(-276.18187,-133.91309)"
     d="m 725.408,274.08691 -39.23,-128.14 a 16.99368,16.99368 0 0 0 -21.23,-11.28 l -92.75,28.39 -191.23973,58.55002 -92.75,28.4 a 17.0152,17.0152 0 0 0 -11.28028,21.23 l 134.08008,437.93 a 17.02661,17.02661 0 0 0 16.26026,12.03 16.78926,16.78926 0 0 0 4.96972,-0.75 l 63.58008,-19.46 2,-0.62 v -2.09 l -2,0.61 -64.16992,19.65 a 15.01489,15.01489 0 0 1 -18.73,-9.95 l -134.06983,-437.94 a 14.97935,14.97935 0 0 1 9.94971,-18.73 l 92.75,-28.4 191.24024,-58.54 92.75,-28.4 a 15.15551,15.15551 0 0 1 4.40966,-0.66 15.01461,15.01461 0 0 1 14.32032,10.61 l 39.0498,127.56 0.62012,2 h 2.08008 z" />
  <path
     id="path6"
     fill="#ff6e00"
     transform="translate(-276.18187,-133.91309)"
     d="m 398.86279,261.73389 a 9.0157,9.0157 0 0 1 -8.61133,-6.3667 l -12.88037,-42.07178 a 8.99884,8.99884 0 0 1 5.9712,-11.24023 l 175.939,-53.86377 a 9.00867,9.00867 0 0 1 11.24072,5.9707 l 12.88037,42.07227 a 9.01029,9.01029 0 0 1 -5.9707,11.24072 l -175.93949,53.86377 a 8.976,8.976 0 0 1 -2.6294,0.39502 z" />
  <circle
     id="circle8"
     fill="#ff6e00"
     r="20"
     cy="24.954651"
     cx="190.1535" />
  <circle
     id="circle10"
     fill="#ffffff"
     r="12.66462"
     cy="24.954651"
     cx="190.1535" />
  <path
     id="path12"
     fill="#e6e6e6"
     transform="translate(-276.18187,-133.91309)"
     d="m 878.81836,716.08691 h -338 a 8.50981,8.50981 0 0 1 -8.5,-8.5 v -405 a 8.50951,8.50951 0 0 1 8.5,-8.5 h 338 a 8.50982,8.50982 0 0 1 8.5,8.5 v 405 a 8.51013,8.51013 0 0 1 -8.5,8.5 z" />
  <path
     transform="translate(-276.18187,-133.91309)"
     id="path14"
     fill="#3f3d56"
     d="m 723.31813,274.08691 h -210.5 a 17.02411,17.02411 0 0 0 -17,17 v 407.8 l 2,-0.61 v -407.19 a 15.01828,15.01828 0 0 1 15,-15 h 211.12012 z m 183.5,0 h -394 a 17.02411,17.02411 0 0 0 -17,17 v 458 a 17.0241,17.0241 0 0 0 17,17 h 394 a 17.0241,17.0241 0 0 0 17,-17 v -458 a 17.02411,17.02411 0 0 0 -17,-17 z m 15,475 a 15.01828,15.01828 0 0 1 -15,15 h -394 a 15.01828,15.01828 0 0 1 -15,-15 v -458 a 15.01828,15.01828 0 0 1 15,-15 h 394 a 15.01828,15.01828 0 0 1 15,15 z" />
  <path
     id="path16"
     fill="#ff6e00"
     transform="translate(-276.18187,-133.91309)"
     d="m 801.81836,318.08691 h -184 a 9.01015,9.01015 0 0 1 -9,-9 v -44 a 9.01016,9.01016 0 0 1 9,-9 h 184 a 9.01016,9.01016 0 0 1 9,9 v 44 a 9.01015,9.01015 0 0 1 -9,9 z" />
  <circle
     id="circle18"
     fill="#ff6e00"
     r="20"
     cy="105.17383"
     cx="433.63626" />
  <circle
     id="circle20"
     fill="#ffffff"
     r="12.18187"
     cy="105.17383"
     cx="433.63626" />
</svg>
