<?xml version="1.0" encoding="UTF-8" standalone="no"?>
<svg
   xmlns:dc="http://purl.org/dc/elements/1.1/"
   xmlns:cc="http://creativecommons.org/ns#"
   xmlns:rdf="http://www.w3.org/1999/02/22-rdf-syntax-ns#"
   xmlns:svg="http://www.w3.org/2000/svg"
   xmlns="http://www.w3.org/2000/svg"
   xmlns:sodipodi="http://sodipodi.sourceforge.net/DTD/sodipodi-0.dtd"
   xmlns:inkscape="http://www.inkscape.org/namespaces/inkscape"
   inkscape:version="1.0 (4035a4fb49, 2020-05-01)"
   sodipodi:docname="register.svg"
   version="1.1"
   viewBox="0 0 804.8873 802.8614"
   height="802.8614"
   width="804.8873"
   data-name="Layer 1"
   id="ee693e3f-f1dd-423f-8d69-5f6c61e6de89">
  <metadata
     id="metadata95">
    <rdf:RDF>
      <cc:Work
         rdf:about="">
        <dc:format>image/svg+xml</dc:format>
        <dc:type
           rdf:resource="http://purl.org/dc/dcmitype/StillImage" />
      </cc:Work>
    </rdf:RDF>
  </metadata>
  <defs
     id="defs93" />
  <sodipodi:namedview
     inkscape:current-layer="ee693e3f-f1dd-423f-8d69-5f6c61e6de89"
     inkscape:window-maximized="1"
     inkscape:window-y="-9"
     inkscape:window-x="-9"
     inkscape:cy="401.43069"
     inkscape:cx="288.49486"
     inkscape:zoom="0.91547559"
     showgrid="false"
     id="namedview91"
     inkscape:window-height="1051"
     inkscape:window-width="1920"
     inkscape:pageshadow="2"
     inkscape:pageopacity="0"
     guidetolerance="10"
     gridtolerance="10"
     objecttolerance="10"
     borderopacity="1"
     bordercolor="#666666"
     pagecolor="#ffffff" />
  <title
     id="title2">speech to text</title>
  <path
     style="fill:#ffffff;fill-opacity:1"
     id="path4"
     fill="#f2f2f2"
     d="M 788.05633,320.16736 C 744.76877,149.95084 595.19665,27.0783 419.63127,22.14999 326.81514,19.54455 229.14665,50.32752 158.0368,158.04839 30.92026,350.61108 165.84841,483.6778 259.9168,546.90846 a 588.60924,588.60924 0 0 1 121.66312,109.35045 c 63.5401,75.40054 185.77677,169.09631 331.35512,22.28946 105.51537,-106.4058 103.95508,-244.99999 75.12129,-358.38101 z" />
  <rect
     id="rect10"
     fill="#3f3d56"
     height="310.53452"
     width="20.429899"
     y="472.44785"
     x="199.75424" />
  <polygon
     transform="translate(0,22)"
     id="polygon12"
     fill="#3f3d56"
     points="49.043,446.055 107.82,407.545 355.021,407.545 381.58,442.276 381.58,450.448 48.573,454.534 48.573,446.362 " />
  <path
     id="path14"
     fill="#ffb9b9"
     d="m 322.33365,415.24413 c 0,0 -73.54765,6.129 -49.03176,24.51588 24.51589,18.38688 49.03176,-12.25794 49.03176,-12.25794 z" />
  <polygon
     transform="translate(0,22)"
     id="polygon16"
     opacity="0.1"
     points="381.58,450.448 48.573,454.534 48.573,446.362 49.043,446.055 381.58,442.521 " />
  <path
     id="path18"
     fill="#575a89"
     d="m 432.65513,315.1376 1.78852,-6.7069 c 0,0 -24.26142,43.48073 -26.30441,47.56671 -2.04299,4.08598 -36.77382,38.81681 -40.8598,44.94578 a 41.74089,41.74089 0 0 1 -10.21495,10.215 h -38.81684 c 0,0 -8.172,26.55887 4.086,28.60186 12.258,2.04299 51.07476,10.21495 59.24672,10.21495 8.17196,0 59.24672,-46.98878 59.24672,-46.98878 z" />
  <polygon
     transform="translate(0,22)"
     id="polygon20"
     fill="#3f3d56"
     points="455.128,585.285 440.827,589.371 428.569,760.982 440.827,760.982 " />
  <polygon
     transform="translate(0,22)"
     id="polygon22"
     fill="#3f3d56"
     points="604.266,564.855 589.965,568.941 577.707,740.552 589.965,740.552 " />
  <polygon
     transform="translate(0,22)"
     id="polygon24"
     fill="#3f3d56"
     points="626.739,585.285 612.438,589.371 600.18,760.982 612.438,760.982 " />
  <polygon
     transform="translate(0,22)"
     id="polygon26"
     fill="#3f3d56"
     points="436.741,568.941 422.44,573.027 410.182,744.638 422.44,744.638 " />
  <polygon
     transform="translate(0,22)"
     id="polygon28"
     fill="#3f3d56"
     points="422.44,528.081 581.793,536.253 608.352,354.427 659.427,354.427 624.696,603.672 418.354,595.5 419.743,572.496 " />
  <path
     id="path30"
     opacity="0.1"
     d="m 659.42705,376.42731 -34.73084,249.24481 -206.342,-8.172 1.38909,-23.00409 c 43.06639,1.65482 188.609,-7.64076 188.609,-7.64076 0,-32.60617 28.64276,-160.25216 40.20591,-210.428 z" />
  <path
     id="path32"
     fill="#ffb9b9"
     d="m 297.81777,678.78987 c 0,0 -6.129,46.98878 -18.38691,55.16074 -12.25791,8.17196 51.07479,18.38691 51.07479,18.38691 l 4.086,-61.28971 z" />
  <path
     id="path34"
     fill="#ffb9b9"
     d="m 504.15979,699.21977 c 0,0 10.215,12.25794 12.25794,20.42991 2.04294,8.17197 32.68784,12.25794 32.68784,12.25794 l 22.47289,-24.51592 c 0,0 -28.60181,-24.51585 -36.77381,-24.51585 -8.172,0 -30.64486,16.34392 -30.64486,16.34392 z" />
  <circle
     id="circle36"
     fill="#ffb9b9"
     r="49.031769"
     cy="228.31052"
     cx="450.02054" />
  <path
     id="path38"
     fill="#ffb9b9"
     d="m 436.74111,262.01986 c 0,0 24.51588,46.98877 20.4299,55.16073 -4.08598,8.17196 53.11775,-38.81681 53.11775,-38.81681 0,0 -20.42991,-32.68785 -20.42991,-42.9028 0,-10.21495 -53.11774,26.55888 -53.11774,26.55888 z" />
  <path
     id="path40"
     fill="#2f2e41"
     d="m 459.214,503.0927 c 0,0 -157.31025,-24.51588 -163.43922,32.68785 -6.12897,57.20373 -28.60186,130.75138 -30.64485,136.88035 -2.04299,6.12897 67.41872,40.8598 75.59064,28.60186 8.17192,-12.25794 22.47289,-110.32147 18.38691,-118.49343 -4.08598,-8.17196 -6.129,-18.38691 2.043,-16.34392 8.172,2.04299 98.06353,20.4299 116.45044,14.30093 18.38691,-6.12897 65.37573,-87.84858 65.37573,-87.84858 z" />
  <path
     id="path42"
     opacity="0.1"
     d="m 459.214,503.0927 c 0,0 -157.31025,-24.51588 -163.43922,32.68785 -6.12897,57.20373 -28.60186,130.75138 -30.64485,136.88035 -2.04299,6.12897 67.41872,40.8598 75.59064,28.60186 8.17192,-12.25794 22.47289,-110.32147 18.38691,-118.49343 -4.08598,-8.17196 -6.129,-18.38691 2.043,-16.34392 8.172,2.04299 98.06353,20.4299 116.45044,14.30093 18.38691,-6.12897 65.37573,-87.84858 65.37573,-87.84858 z" />
  <path
     id="path44"
     fill="#2f2e41"
     d="m 455.12802,490.83477 6.129,51.07475 c 0,0 -98.06353,36.77383 -61.28971,96.02054 36.77382,59.24671 77.63363,91.93457 77.63363,91.93457 0,0 65.37571,-36.77383 65.37571,-46.98878 0,-10.21495 -79.67662,-67.41868 -69.46167,-67.41868 10.21495,0 157.31025,-8.172 126.6654,-89.89157 -30.64485,-81.71957 -145.05236,-34.73083 -145.05236,-34.73083 z" />
  <path
     id="path46"
     fill="#2f2e41"
     d="m 295.77478,735.9936 c 0,0 -16.34392,-18.3869 -16.34392,-14.3009 0,4.086 -46.98878,28.60186 -55.16074,30.64485 -8.17196,2.04299 -20.4299,6.129 -4.086,12.25794 16.3439,6.12894 120.53643,8.172 120.53643,4.086 0,-4.086 4.086,-42.90279 -4.086,-38.81681 -8.172,4.08598 -38.81678,14.30088 -40.85977,6.12892 z" />
  <path
     id="path48"
     fill="#2f2e41"
     d="m 536.84765,721.6927 c 0,0 -22.47289,-6.129 -24.51588,0 -2.04299,6.129 -4.086,30.64485 -22.4729,38.81681 -18.3869,8.17196 -24.51588,20.4299 0,22.47289 24.51588,2.04299 91.93457,-44.94578 91.93457,-53.11774 0,-8.17196 -8.172,-32.68785 -12.258,-30.64486 -4.086,2.04299 -14.3009,20.4299 -32.68779,22.4729 z" />
  <rect
     id="rect50"
     fill="#3f3d56"
     height="36.773819"
     width="93.977547"
     y="748.25153"
     x="162.98041" />
  <path
     id="path52"
     fill="#575a89"
     d="m 510.28876,266.10584 c 0,0 -7.64676,-20.44952 -21.1888,-8.18177 -13.54204,12.26775 -40.10091,42.91263 -40.10091,42.91263 0,0 -16.34392,6.129 -22.47289,16.34392 -6.12897,10.21492 -6.129,77.63363 6.129,100.10653 12.258,22.4729 12.25794,61.2897 16.34392,71.50466 4.08598,10.21496 0,20.4299 14.30093,20.4299 14.30093,0 -8.172,-16.34392 38.81682,0 46.98882,16.34392 100.10652,36.77382 104.1925,22.47289 4.08598,-14.30093 -6.129,-22.47289 0,-28.60186 6.129,-6.12897 0,-8.172 -4.086,-22.4729 -4.086,-14.3009 -8.172,-16.34392 -10.215,-34.73083 -2.043,-18.38691 0,-36.77382 -4.086,-44.94579 -4.086,-8.17197 -4.086,-20.4299 -4.086,-40.8598 0,-20.4299 -12.25787,-61.28972 -34.73076,-73.54772 -22.47289,-12.258 -38.81681,-20.42986 -38.81681,-20.42986 z" />
  <path
     id="path54"
     fill="#2f2e41"
     d="m 402.14551,173.78892 c 11.38828,-11.11686 23.35724,-22.5916 38.5175,-27.43349 20.23461,-6.46254 42.793,0.31879 60.21319,12.47367 3.758,2.62216 7.4382,5.59111 9.69645,9.57845 2.07151,3.65759 2.796,7.90233 3.45279,12.05417 2.31284,14.62078 4.20816,29.43692 3.07741,44.19625 -1.13075,14.75933 -5.48263,29.59417 -14.572,41.27752 a 85.2429,85.2429 0 0 1 -18.1616,-29.92044 c -1.03467,-2.94335 -1.96391,-6.04478 -4.054,-8.36107 -2.09009,-2.31629 -5.769,-3.56265 -8.39242,-1.874 -3.645,2.34624 -3.187,8.61172 -7.03553,10.60666 a 6.69474,6.69474 0 0 1 -4.206,0.44095 c -10.03312,-1.72887 -13.52735,-14.02129 -20.05712,-21.83251 -9.62451,-11.5133 -23.09955,-10.78466 -36.252,-14.09344 -15.26307,-3.83976 -11.48373,-18.07626 -2.22667,-27.11272 z" />
  <ellipse
     id="ellipse56"
     fill="#ff6e00"
     ry="9.1295004"
     rx="41.995708"
     cy="441.51135"
     cx="319.17236" />
  <path
     id="path62"
     fill="#ffb9b9"
     d="m 392.91947,432.95146 c 0,0 -67.71279,-17.9612 -73.23529,-2.51184 -5.5225,15.44936 57.81021,29.75029 57.81021,29.75029 h 26.55887 z" />
  <path
     id="path64"
     fill="#575a89"
     d="m 534.80465,298.7937 c 0,0 -30.64485,22.47289 -38.81681,55.16074 -8.17196,32.68785 -14.30094,67.41868 -14.30094,67.41868 l -93.97755,12.25794 c 0,0 -8.172,32.68784 4.086,34.73083 12.258,2.04299 104.19251,8.172 118.49344,0 14.30093,-8.172 63.33269,-110.32147 61.2897,-120.53642 -2.04299,-10.21495 -6.129,-46.98877 -36.77384,-49.03177 z" />
  <path
     id="path66"
     fill="#d1d9ec"
     d="m 168.55606,444.0581 33.196,2.66388 47.335,-3.0737 -0.82375,-0.0779 -43.84739,-4.22532 c -10.04076,-3.68844 -3.0737,-25.40927 -3.0737,-25.40927 l -33.59761,1.709 -2.67208,0.13525 c -11.88498,27.86821 3.48353,28.27803 3.48353,28.27803 z" />
  <path
     id="path68"
     opacity="0.1"
     d="m 168.55606,444.0581 33.196,2.66388 47.335,-3.0737 -0.82375,-0.0779 -47.8432,1.71717 -32.069,-3.48353 c -9.09814,-2.3934 -3.88926,-18.19222 -0.60654,-26.15926 l -2.67208,0.13525 c -11.88494,27.86824 3.48357,28.27806 3.48357,28.27806 z" />
  <path
     id="path70"
     fill="#4c4c56"
     d="m 113.53565,245.69803 9.9421,144.16043 v 17.39868 c 0.30327,4.37287 2.38254,11.98594 6.76767,11.95725 l 8.14548,-6.9862 h 146.646 c 2.52449,-0.0164 -5.96378,-3.70157 -6.21382,-6.21382 l 10.28357,-5.36924 -10.762,-105.70667 a 8.80966,8.80966 0 0 0 -5.877,-7.43016 L 126.77832,237.05858 c -4.95894,-1.71717 -10.00394,-1.10654 -13.15959,1.51637 -2.16389,1.79914 -0.333,3.53302 -0.0831,7.12308 z" />
  <path
     id="path72"
     fill="#dfe6f5"
     d="m 120.57759,392.37483 1.33194,19.11431 a 8.298,8.298 0 0 0 8.33591,7.72525 l 3.08191,-0.0205 152.8573,-0.92618 a 4.28764,4.28764 0 0 0 4.23755,-4.713 l -1.31555,-12.90957 z" />
  <ellipse
     id="ellipse74"
     fill="#fff"
     ry="4.0982699"
     rx="2.04913"
     cy="408.19824"
     cx="223.06305" />
  <path
     id="path76"
     fill="#d1d9ec"
     d="m 148.22951,448.85263 c 0,0 -41.80236,-15.77834 -53.0726,-4.30318 0,0 -1.84422,3.48353 5.73758,4.30318 l 30.63587,2.459 c 0,0 12.60088,1.22944 16.69915,-2.459 z" />
  <path
     id="path78"
     fill="#dfe6f5"
     d="m 147.11384,444.74821 c -8.21185,-3.35375 -32.93167,-12.03566 -48.74683,-2.4301 0,0 17.5005,-1.93919 27.1171,3.61974 9.6166,5.55893 22.7454,2.91478 22.7454,2.91478 l 0.19643,-0.34927 a 2.65172,2.65172 0 0 0 -1.3121,-3.75515 z" />
  <path
     id="path80"
     fill="#dfe6f5"
     d="m 110.43027,246.71 11.47926,164.77914 a 8.298,8.298 0 0 0 8.33591,7.72525 l 3.08191,-0.0205 a 29.50735,29.50735 0 0 1 -5.34416,-6.89737 c 0,0 -11.27024,-165.5701 -12.0899,-169.66837 a 8.34512,8.34512 0 0 0 -2.27456,-4.05319 9.2812,9.2812 0 0 0 -3.18846,8.13505 z" />
  <path
     id="path82"
     opacity="0.1"
     d="m 110.43027,246.71 11.47926,164.77914 a 8.298,8.298 0 0 0 8.33591,7.72525 l 3.08191,-0.0205 a 29.50735,29.50735 0 0 1 -5.34416,-6.89737 c 0,0 -11.27024,-165.5701 -12.0899,-169.66837 a 8.34512,8.34512 0 0 0 -2.27456,-4.05319 9.2812,9.2812 0 0 0 -3.18846,8.13505 z" />
</svg>
