<?xml version="1.0" encoding="UTF-8" standalone="no"?>
<svg
   xmlns:dc="http://purl.org/dc/elements/1.1/"
   xmlns:cc="http://creativecommons.org/ns#"
   xmlns:rdf="http://www.w3.org/1999/02/22-rdf-syntax-ns#"
   xmlns:svg="http://www.w3.org/2000/svg"
   xmlns="http://www.w3.org/2000/svg"
   xmlns:xlink="http://www.w3.org/1999/xlink"
   xmlns:sodipodi="http://sodipodi.sourceforge.net/DTD/sodipodi-0.dtd"
   xmlns:inkscape="http://www.inkscape.org/namespaces/inkscape"
   inkscape:version="1.0 (4035a4fb49, 2020-05-01)"
   sodipodi:docname="undraw_best_place_r685.svg"
   version="1.1"
   viewBox="0 0 1137 415.57999"
   height="415.57999"
   width="1137"
   data-name="Layer 1"
   id="a8904fed-7223-4ff2-9071-b444910320a0">
  <metadata
     id="metadata299">
    <rdf:RDF>
      <cc:Work
         rdf:about="">
        <dc:format>image/svg+xml</dc:format>
        <dc:type
           rdf:resource="http://purl.org/dc/dcmitype/StillImage" />
        <dc:title>best place</dc:title>
      </cc:Work>
    </rdf:RDF>
  </metadata>
  <defs
     id="defs297">
    <linearGradient
       id="linearGradient906"
       inkscape:collect="always">
      <stop
         id="stop902"
         offset="0"
         style="stop-color:#ff6f00;stop-opacity:1" />
      <stop
         id="stop904"
         offset="1"
         style="stop-color:#ff8500;stop-opacity:0" />
    </linearGradient>
    <rect
       id="rect886"
       height="31.537804"
       width="136.97563"
       y="6.5481033"
       x="39.689526" />
    <linearGradient
       gradientTransform="matrix(3.7795276,0,0,3.7795276,-42.276777,-9.0267799)"
       inkscape:collect="always"
       xlink:href="#linearGradient906"
       id="linearGradient926-3"
       x1="20.624704"
       y1="17.260954"
       x2="36.222954"
       y2="3.6970246"
       gradientUnits="userSpaceOnUse" />
  </defs>
  <sodipodi:namedview
     inkscape:current-layer="a8904fed-7223-4ff2-9071-b444910320a0"
     inkscape:window-maximized="1"
     inkscape:window-y="-9"
     inkscape:window-x="-9"
     inkscape:cy="208.61621"
     inkscape:cx="487.751"
     inkscape:zoom="1.4142136"
     showgrid="false"
     id="namedview295"
     inkscape:window-height="1051"
     inkscape:window-width="1920"
     inkscape:pageshadow="2"
     inkscape:pageopacity="0"
     guidetolerance="10"
     gridtolerance="10"
     objecttolerance="10"
     borderopacity="1"
     bordercolor="#666666"
     pagecolor="#ffffff" />
  <title
     id="title2">best place</title>
  <circle
     style="opacity:1"
     id="circle6"
     fill="#ff6584"
     r="54.315159"
     cy="67.535606"
     cx="942.0296" />
  <rect
     id="rect8"
     fill="#3f3d56"
     height="79"
     width="2"
     y="334.58743"
     x="877" />
  <path
     style="fill:#008080"
     id="path10"
     fill="#ff6e00"
     d="m 897.45773,344.6551 c 0.12732,27.62433 -19.30786,50.10833 -19.30786,50.10833 0,0 -19.6416,-22.3039 -19.76892,-49.92823 -0.12732,-27.62433 19.30786,-50.10833 19.30786,-50.10833 0,0 19.6416,22.30386 19.76892,49.92823 z" />
  <path
     style="fill:#008000"
     id="path12"
     opacity="0.1"
     d="m 897.45773,344.6551 c 0.12732,27.62433 -19.30786,50.10833 -19.30786,50.10833 0,0 -19.6416,-22.3039 -19.76892,-49.92823 -0.12732,-27.62433 19.30786,-50.10833 19.30786,-50.10833 0,0 19.6416,22.30386 19.76892,49.92823 z" />
  <path
     id="path22"
     fill="#3f3d56"
     d="m 56.63058,404.80322 c 1.694,6.26184 7.4961,10.14 7.4961,10.14 0,0 3.05572,-6.27434 1.36177,-12.53618 -1.69395,-6.26184 -7.49609,-10.14 -7.49609,-10.14 0,0 -3.05572,6.27433 -1.36178,12.53618 z" />
  <path
     style="fill:#008000"
     id="path24"
     fill="#ff6e00"
     d="m 59.11972,403.45748 c 4.64821,4.52485 5.216,11.4806 5.216,11.4806 0,0 -6.9685,-0.38049 -11.61672,-4.90534 -4.64822,-4.52485 -5.216,-11.48059 -5.216,-11.48059 0,0 6.9685,0.38048 11.61672,4.90533 z" />
  <path
     id="path26"
     fill="#3f3d56"
     d="m 668.63058,404.80322 c 1.69395,6.26184 7.4961,10.14 7.4961,10.14 0,0 3.05572,-6.27434 1.36177,-12.53618 -1.69395,-6.26184 -7.49609,-10.14 -7.49609,-10.14 0,0 -3.05572,6.27433 -1.36178,12.53618 z" />
  <path
     style="fill:#008000"
     id="path28"
     fill="#ff6e00"
     d="m 671.11972,403.45748 c 4.64821,4.52485 5.216,11.4806 5.216,11.4806 0,0 -6.9685,-0.38049 -11.61672,-4.90534 -4.64822,-4.52485 -5.216,-11.48059 -5.216,-11.48059 0,0 6.9685,0.38048 11.61672,4.90533 z" />
  <polygon
     transform="translate(0,-102.46922)"
     id="polygon30"
     fill="#3f3d56"
     points="166.052,468.478 124.679,476.752 68.137,460.203 64,453.308 102.614,420.21 201.908,420.21 201.908,429.863 " />
  <polygon
     transform="translate(0,-102.46922)"
     id="polygon32"
     fill="#cccccc"
     points="168.81,516.745 232.247,516.745 232.247,454.687 219,439.633 219,418.056 206,418.056 206,424.86 201.908,420.21 168.81,453.308 163.293,458.824 156.398,486.406 " />
  <rect
     id="rect34"
     fill="#f2f2f2"
     height="63.4375"
     width="104.80978"
     y="350.8385"
     x="64" />
  <rect
     id="rect36"
     fill="#3f3d56"
     height="19.30707"
     width="22.06522"
     y="370.83511"
     x="132.26427" />
  <rect
     id="rect38"
     fill="#cccccc"
     height="44.130428"
     width="19.30707"
     y="370.14557"
     x="103.99321" />
  <polygon
     transform="translate(0,-102.46922)"
     id="polygon40"
     fill="#3f3d56"
     points="81.238,479.51 81.928,479.51 81.928,472.615 73.654,472.615 73.654,479.51 " />
  <polygon
     transform="translate(0,-102.46922)"
     id="polygon42"
     fill="#3f3d56"
     points="81.928,485.026 81.238,485.026 73.654,485.026 73.654,491.922 81.928,491.922 " />
  <rect
     id="rect44"
     fill="#3f3d56"
     height="6.89538"
     width="8.2744598"
     y="370.14557"
     x="87.44429" />
  <rect
     id="rect46"
     fill="#3f3d56"
     height="6.89538"
     width="8.2744598"
     y="382.55725"
     x="87.44429" />
  <polygon
     transform="translate(0,-102.46922)"
     id="polygon48"
     fill="#3f3d56"
     points="197.77,480.2 198.46,480.2 198.46,473.304 190.185,473.304 190.185,480.2 " />
  <polygon
     transform="translate(0,-102.46922)"
     id="polygon50"
     fill="#3f3d56"
     points="198.46,485.716 197.77,485.716 190.185,485.716 190.185,492.611 198.46,492.611 " />
  <rect
     id="rect52"
     fill="#3f3d56"
     height="6.89538"
     width="8.2744598"
     y="370.83511"
     x="203.97623" />
  <rect
     id="rect54"
     fill="#3f3d56"
     height="6.89538"
     width="8.2744598"
     y="383.2468"
     x="203.97623" />
  <polygon
     transform="translate(0,-102.46922)"
     id="polygon56"
     fill="#3f3d56"
     points="565.052,468.478 523.679,476.752 467.137,460.203 463,453.308 501.614,420.21 600.908,420.21 600.908,429.863 " />
  <polygon
     transform="translate(0,-102.46922)"
     id="polygon58"
     fill="#cccccc"
     points="567.81,516.745 631.247,516.745 631.247,454.687 618,439.633 618,418.056 605,418.056 605,424.86 600.908,420.21 567.81,453.308 562.293,458.824 555.398,486.406 " />
  <rect
     id="rect60"
     fill="#f2f2f2"
     height="63.4375"
     width="104.80978"
     y="350.8385"
     x="463" />
  <rect
     id="rect62"
     fill="#3f3d56"
     height="19.30707"
     width="22.06522"
     y="370.83511"
     x="531.26428" />
  <rect
     id="rect64"
     fill="#cccccc"
     height="44.130428"
     width="19.30707"
     y="370.14557"
     x="502.99323" />
  <polygon
     transform="translate(0,-102.46922)"
     id="polygon66"
     fill="#3f3d56"
     points="480.238,479.51 480.928,479.51 480.928,472.615 472.654,472.615 472.654,479.51 " />
  <polygon
     transform="translate(0,-102.46922)"
     id="polygon68"
     fill="#3f3d56"
     points="480.928,485.026 480.238,485.026 472.654,485.026 472.654,491.922 480.928,491.922 " />
  <rect
     id="rect70"
     fill="#3f3d56"
     height="6.89538"
     width="8.2744598"
     y="370.14557"
     x="486.44427" />
  <rect
     id="rect72"
     fill="#3f3d56"
     height="6.89538"
     width="8.2744598"
     y="382.55725"
     x="486.44427" />
  <polygon
     transform="translate(0,-102.46922)"
     id="polygon74"
     fill="#3f3d56"
     points="596.77,480.2 597.46,480.2 597.46,473.304 589.185,473.304 589.185,480.2 " />
  <polygon
     transform="translate(0,-102.46922)"
     id="polygon76"
     fill="#3f3d56"
     points="597.46,485.716 596.77,485.716 589.185,485.716 589.185,492.611 597.46,492.611 " />
  <rect
     id="rect78"
     fill="#3f3d56"
     height="6.89538"
     width="8.2744598"
     y="370.83511"
     x="602.9762" />
  <rect
     id="rect80"
     fill="#3f3d56"
     height="6.89538"
     width="8.2744598"
     y="383.2468"
     x="602.9762" />
  <polygon
     transform="translate(0,-102.46922)"
     id="polygon82"
     fill="#3f3d56"
     points="273.62,338.844 312.234,304.367 410.148,304.367 410.148,334.707 346.711,377.459 280.515,344.361 " />
  <polygon
     transform="translate(0,-102.46922)"
     id="polygon84"
     fill="#cccccc"
     points="375.796,516.745 443.246,516.745 443.246,340.223 428,323.707 428,305.056 415,305.056 415,309.624 410.148,304.367 378.429,338.844 366.018,347.119 346.773,487.722 " />
  <rect
     id="rect86"
     fill="#f2f2f2"
     height="177.90082"
     width="104.80978"
     y="236.37517"
     x="273.61957" />
  <rect
     id="rect88"
     fill="#cccccc"
     height="43.440899"
     width="19.30707"
     y="370.83511"
     x="314.30231" />
  <polygon
     transform="translate(0,-102.46922)"
     id="polygon90"
     fill="#3f3d56"
     points="292.927,485.716 293.616,485.716 293.616,478.821 285.342,478.821 285.342,485.716 " />
  <polygon
     transform="translate(0,-102.46922)"
     id="polygon92"
     fill="#3f3d56"
     points="293.616,491.232 292.927,491.232 285.342,491.232 285.342,498.128 293.616,498.128 " />
  <rect
     id="rect94"
     fill="#3f3d56"
     height="6.89538"
     width="8.2744598"
     y="376.35141"
     x="299.13248" />
  <rect
     id="rect96"
     fill="#3f3d56"
     height="6.89538"
     width="8.2744598"
     y="388.76309"
     x="299.13248" />
  <polygon
     transform="translate(0,-102.46922)"
     id="polygon98"
     fill="#3f3d56"
     points="349.469,485.716 350.158,485.716 350.158,478.821 341.884,478.821 341.884,485.716 " />
  <polygon
     transform="translate(0,-102.46922)"
     id="polygon100"
     fill="#3f3d56"
     points="350.158,491.232 349.469,491.232 341.884,491.232 341.884,498.128 350.158,498.128 " />
  <rect
     id="rect102"
     fill="#3f3d56"
     height="6.89538"
     width="8.2744598"
     y="376.35141"
     x="355.67459" />
  <rect
     id="rect104"
     fill="#3f3d56"
     height="6.89538"
     width="8.2744598"
     y="388.76309"
     x="355.67459" />
  <polygon
     transform="translate(0,-102.46922)"
     id="polygon106"
     fill="#3f3d56"
     points="407.39,347.808 408.079,347.808 408.079,340.913 399.805,340.913 399.805,347.808 " />
  <polygon
     transform="translate(0,-102.46922)"
     id="polygon108"
     fill="#3f3d56"
     points="408.079,353.325 407.39,353.325 399.805,353.325 399.805,360.22 408.079,360.22 " />
  <rect
     id="rect110"
     fill="#3f3d56"
     height="6.89538"
     width="8.2744598"
     y="238.4438"
     x="413.59579" />
  <rect
     id="rect112"
     fill="#3f3d56"
     height="6.89538"
     width="8.2744598"
     y="250.85545"
     x="413.59579" />
  <polygon
     transform="translate(0,-102.46922)"
     id="polygon114"
     fill="#3f3d56"
     points="407.39,386.423 408.079,386.423 408.079,379.527 399.805,379.527 399.805,386.423 " />
  <polygon
     transform="translate(0,-102.46922)"
     id="polygon116"
     fill="#3f3d56"
     points="408.079,391.939 407.39,391.939 399.805,391.939 399.805,398.834 408.079,398.834 " />
  <rect
     id="rect118"
     fill="#3f3d56"
     height="6.89538"
     width="8.2744598"
     y="277.05792"
     x="413.59579" />
  <rect
     id="rect120"
     fill="#3f3d56"
     height="6.89538"
     width="8.2744598"
     y="289.4696"
     x="413.59579" />
  <polygon
     transform="translate(0,-102.46922)"
     id="polygon122"
     fill="#3f3d56"
     points="407.39,425.037 408.079,425.037 408.079,418.141 399.805,418.141 399.805,425.037 " />
  <polygon
     transform="translate(0,-102.46922)"
     id="polygon124"
     fill="#3f3d56"
     points="408.079,430.553 407.39,430.553 399.805,430.553 399.805,437.448 408.079,437.448 " />
  <rect
     id="rect126"
     fill="#3f3d56"
     height="6.89538"
     width="8.2744598"
     y="315.67206"
     x="413.59579" />
  <rect
     id="rect128"
     fill="#3f3d56"
     height="6.89538"
     width="8.2744598"
     y="328.08374"
     x="413.59579" />
  <polygon
     transform="translate(0,-102.46922)"
     id="polygon130"
     fill="#3f3d56"
     points="407.39,463.651 408.079,463.651 408.079,456.755 399.805,456.755 399.805,463.651 " />
  <polygon
     transform="translate(0,-102.46922)"
     id="polygon132"
     fill="#3f3d56"
     points="408.079,469.167 407.39,469.167 399.805,469.167 399.805,476.062 408.079,476.062 " />
  <rect
     id="rect134"
     fill="#3f3d56"
     height="6.89538"
     width="8.2744598"
     y="354.28619"
     x="413.59579" />
  <rect
     id="rect136"
     fill="#3f3d56"
     height="6.89538"
     width="8.2744598"
     y="366.69788"
     x="413.59579" />
  <rect
     id="rect138"
     fill="#3f3d56"
     height="16.54891"
     width="79.986412"
     y="245.33916"
     x="285.34171" />
  <rect
     id="rect140"
     fill="#3f3d56"
     height="16.54891"
     width="79.986412"
     y="278.43701"
     x="285.34171" />
  <rect
     id="rect142"
     fill="#3f3d56"
     height="16.54891"
     width="79.986412"
     y="311.53482"
     x="285.34171" />
  <rect
     id="rect144"
     fill="#3f3d56"
     height="16.54891"
     width="79.986412"
     y="344.63266"
     x="285.34171" />
  <polygon
     transform="translate(0,-102.46922)"
     id="polygon146"
     fill="#3f3d56"
     points="676.62,338.844 715.234,304.367 813.148,304.367 813.148,334.707 749.711,377.459 683.515,344.361 " />
  <polygon
     transform="translate(0,-102.46922)"
     id="polygon148"
     fill="#cccccc"
     points="778.796,516.745 846.246,516.745 846.246,340.223 831,323.707 831,305.056 818,305.056 818,309.624 813.148,304.367 781.429,338.844 769.018,347.119 749.773,487.722 " />
  <rect
     id="rect150"
     fill="#f2f2f2"
     height="177.90082"
     width="104.80978"
     y="236.37517"
     x="676.61957" />
  <rect
     id="rect152"
     fill="#cccccc"
     height="43.440899"
     width="19.30707"
     y="370.83511"
     x="717.30231" />
  <polygon
     transform="translate(0,-102.46922)"
     id="polygon154"
     fill="#3f3d56"
     points="695.927,485.716 696.616,485.716 696.616,478.821 688.342,478.821 688.342,485.716 " />
  <polygon
     transform="translate(0,-102.46922)"
     id="polygon156"
     fill="#3f3d56"
     points="696.616,491.232 695.927,491.232 688.342,491.232 688.342,498.128 696.616,498.128 " />
  <rect
     id="rect158"
     fill="#3f3d56"
     height="6.89538"
     width="8.2744598"
     y="376.35141"
     x="702.13245" />
  <rect
     id="rect160"
     fill="#3f3d56"
     height="6.89538"
     width="8.2744598"
     y="388.76309"
     x="702.13245" />
  <polygon
     transform="translate(0,-102.46922)"
     id="polygon162"
     fill="#3f3d56"
     points="752.469,485.716 753.158,485.716 753.158,478.821 744.884,478.821 744.884,485.716 " />
  <polygon
     transform="translate(0,-102.46922)"
     id="polygon164"
     fill="#3f3d56"
     points="753.158,491.232 752.469,491.232 744.884,491.232 744.884,498.128 753.158,498.128 " />
  <rect
     id="rect166"
     fill="#3f3d56"
     height="6.89538"
     width="8.2744598"
     y="376.35141"
     x="758.67456" />
  <rect
     id="rect168"
     fill="#3f3d56"
     height="6.89538"
     width="8.2744598"
     y="388.76309"
     x="758.67456" />
  <polygon
     transform="translate(0,-102.46922)"
     id="polygon170"
     fill="#3f3d56"
     points="810.39,347.808 811.079,347.808 811.079,340.913 802.805,340.913 802.805,347.808 " />
  <polygon
     transform="translate(0,-102.46922)"
     id="polygon172"
     fill="#3f3d56"
     points="811.079,353.325 810.39,353.325 802.805,353.325 802.805,360.22 811.079,360.22 " />
  <rect
     id="rect174"
     fill="#3f3d56"
     height="6.89538"
     width="8.2744598"
     y="238.4438"
     x="816.59576" />
  <rect
     id="rect176"
     fill="#3f3d56"
     height="6.89538"
     width="8.2744598"
     y="250.85545"
     x="816.59576" />
  <polygon
     transform="translate(0,-102.46922)"
     id="polygon178"
     fill="#3f3d56"
     points="810.39,386.423 811.079,386.423 811.079,379.527 802.805,379.527 802.805,386.423 " />
  <polygon
     transform="translate(0,-102.46922)"
     id="polygon180"
     fill="#3f3d56"
     points="811.079,391.939 810.39,391.939 802.805,391.939 802.805,398.834 811.079,398.834 " />
  <rect
     id="rect182"
     fill="#3f3d56"
     height="6.89538"
     width="8.2744598"
     y="277.05792"
     x="816.59576" />
  <rect
     id="rect184"
     fill="#3f3d56"
     height="6.89538"
     width="8.2744598"
     y="289.4696"
     x="816.59576" />
  <polygon
     transform="translate(0,-102.46922)"
     id="polygon186"
     fill="#3f3d56"
     points="810.39,425.037 811.079,425.037 811.079,418.141 802.805,418.141 802.805,425.037 " />
  <polygon
     transform="translate(0,-102.46922)"
     id="polygon188"
     fill="#3f3d56"
     points="811.079,430.553 810.39,430.553 802.805,430.553 802.805,437.448 811.079,437.448 " />
  <rect
     id="rect190"
     fill="#3f3d56"
     height="6.89538"
     width="8.2744598"
     y="315.67206"
     x="816.59576" />
  <rect
     id="rect192"
     fill="#3f3d56"
     height="6.89538"
     width="8.2744598"
     y="328.08374"
     x="816.59576" />
  <polygon
     transform="translate(0,-102.46922)"
     id="polygon194"
     fill="#3f3d56"
     points="810.39,463.651 811.079,463.651 811.079,456.755 802.805,456.755 802.805,463.651 " />
  <polygon
     transform="translate(0,-102.46922)"
     id="polygon196"
     fill="#3f3d56"
     points="811.079,469.167 810.39,469.167 802.805,469.167 802.805,476.062 811.079,476.062 " />
  <rect
     id="rect198"
     fill="#3f3d56"
     height="6.89538"
     width="8.2744598"
     y="354.28619"
     x="816.59576" />
  <rect
     id="rect200"
     fill="#3f3d56"
     height="6.89538"
     width="8.2744598"
     y="366.69788"
     x="816.59576" />
  <rect
     id="rect202"
     fill="#3f3d56"
     height="16.54891"
     width="79.986412"
     y="245.33916"
     x="688.34174" />
  <rect
     id="rect204"
     fill="#3f3d56"
     height="16.54891"
     width="79.986412"
     y="278.43701"
     x="688.34174" />
  <rect
     id="rect206"
     fill="#3f3d56"
     height="16.54891"
     width="79.986412"
     y="311.53482"
     x="688.34174" />
  <rect
     id="rect208"
     fill="#3f3d56"
     height="16.54891"
     width="79.986412"
     y="344.63266"
     x="688.34174" />
  <polygon
     transform="translate(0,-102.46922)"
     id="polygon210"
     fill="#3f3d56"
     points="897.62,338.844 936.234,304.367 1034.148,304.367 1034.148,334.707 970.711,377.459 904.515,344.361 " />
  <polygon
     transform="translate(0,-102.46922)"
     id="polygon212"
     fill="#cccccc"
     points="999.796,516.745 1067.246,516.745 1067.246,340.223 1052,323.707 1052,305.056 1039,305.056 1039,309.624 1034.148,304.367 1002.429,338.844 990.018,347.119 970.773,487.722 " />
  <rect
     id="rect214"
     fill="#f2f2f2"
     height="177.90082"
     width="104.80978"
     y="236.37517"
     x="897.61957" />
  <rect
     id="rect216"
     fill="#cccccc"
     height="43.440899"
     width="19.30707"
     y="370.83511"
     x="938.30231" />
  <polygon
     transform="translate(0,-102.46922)"
     id="polygon218"
     fill="#3f3d56"
     points="916.927,485.716 917.616,485.716 917.616,478.821 909.342,478.821 909.342,485.716 " />
  <polygon
     transform="translate(0,-102.46922)"
     id="polygon220"
     fill="#3f3d56"
     points="917.616,491.232 916.927,491.232 909.342,491.232 909.342,498.128 917.616,498.128 " />
  <rect
     id="rect222"
     fill="#3f3d56"
     height="6.89538"
     width="8.2744598"
     y="376.35141"
     x="923.13245" />
  <rect
     id="rect224"
     fill="#3f3d56"
     height="6.89538"
     width="8.2744598"
     y="388.76309"
     x="923.13245" />
  <polygon
     transform="translate(0,-102.46922)"
     id="polygon226"
     fill="#3f3d56"
     points="973.469,485.716 974.158,485.716 974.158,478.821 965.884,478.821 965.884,485.716 " />
  <polygon
     transform="translate(0,-102.46922)"
     id="polygon228"
     fill="#3f3d56"
     points="974.158,491.232 973.469,491.232 965.884,491.232 965.884,498.128 974.158,498.128 " />
  <rect
     id="rect230"
     fill="#3f3d56"
     height="6.89538"
     width="8.2744598"
     y="376.35141"
     x="979.67456" />
  <rect
     id="rect232"
     fill="#3f3d56"
     height="6.89538"
     width="8.2744598"
     y="388.76309"
     x="979.67456" />
  <polygon
     transform="translate(0,-102.46922)"
     id="polygon234"
     fill="#3f3d56"
     points="1031.39,347.808 1032.079,347.808 1032.079,340.913 1023.805,340.913 1023.805,347.808 " />
  <polygon
     transform="translate(0,-102.46922)"
     id="polygon236"
     fill="#3f3d56"
     points="1032.079,353.325 1031.39,353.325 1023.805,353.325 1023.805,360.22 1032.079,360.22 " />
  <rect
     id="rect238"
     fill="#3f3d56"
     height="6.89538"
     width="8.2744598"
     y="238.4438"
     x="1037.5958" />
  <rect
     id="rect240"
     fill="#3f3d56"
     height="6.89538"
     width="8.2744598"
     y="250.85545"
     x="1037.5958" />
  <polygon
     transform="translate(0,-102.46922)"
     id="polygon242"
     fill="#3f3d56"
     points="1031.39,386.423 1032.079,386.423 1032.079,379.527 1023.805,379.527 1023.805,386.423 " />
  <polygon
     transform="translate(0,-102.46922)"
     id="polygon244"
     fill="#3f3d56"
     points="1032.079,391.939 1031.39,391.939 1023.805,391.939 1023.805,398.834 1032.079,398.834 " />
  <rect
     id="rect246"
     fill="#3f3d56"
     height="6.89538"
     width="8.2744598"
     y="277.05792"
     x="1037.5958" />
  <rect
     id="rect248"
     fill="#3f3d56"
     height="6.89538"
     width="8.2744598"
     y="289.4696"
     x="1037.5958" />
  <polygon
     transform="translate(0,-102.46922)"
     id="polygon250"
     fill="#3f3d56"
     points="1031.39,425.037 1032.079,425.037 1032.079,418.141 1023.805,418.141 1023.805,425.037 " />
  <polygon
     transform="translate(0,-102.46922)"
     id="polygon252"
     fill="#3f3d56"
     points="1032.079,430.553 1031.39,430.553 1023.805,430.553 1023.805,437.448 1032.079,437.448 " />
  <rect
     id="rect254"
     fill="#3f3d56"
     height="6.89538"
     width="8.2744598"
     y="315.67206"
     x="1037.5958" />
  <rect
     id="rect256"
     fill="#3f3d56"
     height="6.89538"
     width="8.2744598"
     y="328.08374"
     x="1037.5958" />
  <polygon
     transform="translate(0,-102.46922)"
     id="polygon258"
     fill="#3f3d56"
     points="1031.39,463.651 1032.079,463.651 1032.079,456.755 1023.805,456.755 1023.805,463.651 " />
  <polygon
     transform="translate(0,-102.46922)"
     id="polygon260"
     fill="#3f3d56"
     points="1032.079,469.167 1031.39,469.167 1023.805,469.167 1023.805,476.062 1032.079,476.062 " />
  <rect
     id="rect262"
     fill="#3f3d56"
     height="6.89538"
     width="8.2744598"
     y="354.28619"
     x="1037.5958" />
  <rect
     id="rect264"
     fill="#3f3d56"
     height="6.89538"
     width="8.2744598"
     y="366.69788"
     x="1037.5958" />
  <rect
     id="rect266"
     fill="#3f3d56"
     height="16.54891"
     width="79.986412"
     y="245.33916"
     x="909.34174" />
  <rect
     id="rect268"
     fill="#3f3d56"
     height="16.54891"
     width="79.986412"
     y="278.43701"
     x="909.34174" />
  <rect
     id="rect270"
     fill="#3f3d56"
     height="16.54891"
     width="79.986412"
     y="311.53482"
     x="909.34174" />
  <rect
     id="rect272"
     fill="#3f3d56"
     height="16.54891"
     width="79.986412"
     y="344.63266"
     x="909.34174" />
  <rect
     x="0"
     id="rect274"
     fill="#3f3d56"
     height="2"
     width="1137"
     y="413.58743" />
  <rect
     id="rect276"
     fill="#3f3d56"
     height="79"
     width="2"
     y="334.58743"
     x="252" />
  <path
     style="fill:#008000"
     id="path278"
     fill="#ff6e00"
     d="m 272.45773,344.6551 c 0.12732,27.62433 -19.30786,50.10833 -19.30786,50.10833 0,0 -19.6416,-22.3039 -19.76892,-49.92823 -0.12732,-27.62433 19.30786,-50.10833 19.30786,-50.10833 0,0 19.6416,22.30386 19.76892,49.92823 z" />
  <rect
     id="rect280"
     fill="#3f3d56"
     height="79"
     width="2"
     y="334.58743"
     x="452" />
  <path
     style="fill:#008000"
     id="path282"
     fill="#ff6e00"
     d="m 472.45773,344.6551 c 0.12732,27.62433 -19.30786,50.10833 -19.30786,50.10833 0,0 -19.6416,-22.3039 -19.76892,-49.92823 -0.12732,-27.62433 19.30786,-50.10833 19.30786,-50.10833 0,0 19.6416,22.30386 19.76892,49.92823 z" />
  <rect
     id="rect284"
     fill="#3f3d56"
     height="79"
     width="2"
     y="334.58743"
     x="851" />
  <path
     style="fill:#008000"
     id="path286"
     fill="#ff6e00"
     d="m 871.45773,344.6551 c 0.12732,27.62433 -19.30786,50.10833 -19.30786,50.10833 0,0 -19.6416,-22.3039 -19.76892,-49.92823 -0.12732,-27.62433 19.30786,-50.10833 19.30786,-50.10833 0,0 19.6416,22.30386 19.76892,49.92823 z" />
  <path
     id="path106"
     fill="#3f3d56"
     d="m 506.1281,142.92669 9.20569,-7.3628 c -7.15149,-0.789 -10.0899,3.11127 -11.29248,6.19837 -5.587,-2.32 -11.66919,0.72046 -11.66919,0.72046 l 18.41889,6.6867 a 13.93792,13.93792 0 0 0 -4.66291,-6.24273 z" />
  <path
     id="path108"
     fill="#3f3d56"
     d="m 281.1281,77.92669 9.20569,-7.3628 c -7.15149,-0.789 -10.0899,3.11127 -11.29248,6.19837 -5.587,-2.32 -11.66919,0.72046 -11.66919,0.72046 l 18.41889,6.6867 a 13.93792,13.93792 0 0 0 -4.66291,-6.24273 z" />
  <path
     id="path110"
     fill="#3f3d56"
     d="m 648.1281,48.92669 9.20569,-7.3628 c -7.15149,-0.789 -10.0899,3.11127 -11.29248,6.19837 -5.587,-2.32 -11.66919,0.72046 -11.66919,0.72046 l 18.41889,6.6867 a 13.93792,13.93792 0 0 0 -4.66291,-6.24273 z" />
  <path
     d="m 898.17944,212.74362 9.20569,-7.3628 c -7.15149,-0.789 -10.0899,3.11127 -11.29248,6.19837 -5.587,-2.32 -11.66919,0.72046 -11.66919,0.72046 l 18.41889,6.6867 a 13.93792,13.93792 0 0 0 -4.66291,-6.24273 z"
     fill="#3f3d56"
     id="path110-2" />
</svg>
